<svg xmlns="http://www.w3.org/2000/svg" width="128" height="128" viewBox="0 0 128 128">
  <path fill="#646CFF" d="M64 0C28.65 0 0 28.65 0 64s28.65 64 64 64s64-28.65 64-64S99.35 0 64 0zm0 118.4c-30.06 0-54.4-24.34-54.4-54.4S33.94 9.6 64 9.6s54.4 24.34 54.4 54.4S94.06 118.4 64 118.4z"/>
  <path fill="#646CFF" d="M80.39 36.02L64.68 46.77L48.98 36.02l-12.39 7.15l28.09 16.22l28.1-16.22zM64.68 51.87l15.71 9.07l-15.71 9.07l-15.71-9.07zM36.59 57.49l12.4 7.16l-12.4 7.15V57.49zm54.82 0v14.31l-12.39-7.16l12.39-7.15zM48.98 77.23l15.71 9.07l15.71-9.07l-15.71-9.07z"/>
</svg>
